# xmcd
#
# Track frame offsets:
#	150
#	23707
#	36660
#	51167
#	65817
#	82327
#	95127
#	113417
#	128400
#	141462
#	158237
#	176072
#	190092
#
# Disc length: 2727
#
# Revision: 6
# Processed by: cddbd v1.5.1PL0 Copyright (c) Steve Scherf et al.
# Submitted via: ExactAudioCopy v0.90b3
# Normalized: r4:TDELIM( - ),TSWAP
#
DISCID=bd0aa50d
DTITLE=Ricky Skaggs and Friends - Big Mon (The Songs Of Bill Monroe)
DYEAR=1900
DGENRE=Country
TTITLE0=Bruce Hornsby - Darlin' Corey
TTITLE1=Dolly Parton - Cry.Cry Darlin'
TTITLE2=Steve Wariner - Heavy Traffic Ahead
TTITLE3=Patty Loveless - Close By
TTITLE4=John Fogerty - Blue Moon Of Kentucky
TTITLE5=The Whites - Used To Be
TTITLE6=The Dixie Chicks and Ricky Skaggs - Walk Softly
TTITLE7=Travis Tritt - My Little Georgia Rose
TTITLE8=The Charlie Daniels Band - I Am A Pilgrim
TTITLE9=Joan Osborne and Ricky Skaggs - On The Old Kentucky Shore
TTITLE10=Mary-Chapin Carpenter - Blue Night
TTITLE11=Dwight Yoakam - Rocky Road Blues
TTITLE12=Various Artist - Big Mon
EXTD=
EXTT0=w/Bruce Hornsby
EXTT1=w/Dolly Parton
EXTT2=w/Steve Warnier
EXTT3=w/Patty Loveliss
EXTT4=w/John Fogerty
EXTT5=w/The Whites
EXTT6=w/The Dixie Chicks
EXTT7=w/Travis Tritt
EXTT8=w/Charlie Daniels
EXTT9=w/Joan Osborne
EXTT10=w/Mary Chapin Carpenter
EXTT11=w/Dwight Yoakam
EXTT12=
PLAYORDER=
